<svg width="401" height="132" viewBox="0 0 401 132" fill="none" xmlns="http://www.w3.org/2000/svg">
<path d="M281.301 25.2021H354.121V0.853865H266.11C251.948 0.853865 240.466 12.3425 240.466 26.5128V75.5334L183.132 4.04501C181.511 2.02102 179.056 0.842291 176.463 0.844608L146.155 0.853865V131.078H180.577V39.7708L246.257 121.659C250.962 127.407 258.107 131.078 266.11 131.078H354.121V106.729H281.301C277.759 106.729 274.89 103.858 274.89 100.315V78.1411H344.237V53.7928H274.89V31.6168C274.89 28.0737 277.759 25.2021 281.301 25.2021Z" fill="#19226D"/>
<path d="M94.5195 98.5227V99.2452C94.5195 103.379 91.1703 106.73 87.0388 106.73H42.1105C37.979 106.73 34.6321 103.379 34.6321 99.2452V32.6849C34.6321 28.5535 37.979 25.2026 42.1105 25.2026H54.6347L68.6866 0.85437H30.1281C13.6043 0.85437 0.20752 14.2558 0.20752 30.7883V101.144C0.20752 117.677 13.6043 131.078 30.1281 131.078H99.0237C115.547 131.078 128.942 117.677 128.942 101.144V98.5227H94.5195Z" fill="#19226D"/>
<path d="M64.573 25.2019H87.0405C91.1697 25.2019 94.5189 28.553 94.5189 32.6866V89.9121H128.944V30.7876C128.944 14.2552 115.547 0.85376 99.0231 0.85376H78.6224L64.573 25.2019Z" fill="#00C2F3"/>
<path d="M371.333 131.078V124.02L391.492 117.566V116.757L371.333 110.303V103.245L399.554 112.522V121.801L371.333 131.078Z" fill="#19226D"/>
<path d="M371.331 95.0817H399.554V101.536H371.331V95.0817Z" fill="#19226D"/>
<path d="M390.282 85.4507C392.541 85.4507 394.313 83.6352 394.313 80.2079C394.313 76.7782 392.902 75.3654 391.291 75.3654C389.88 75.3654 388.873 76.3335 388.265 79.3996L387.46 83.8367C386.533 88.8805 384.075 91.3004 379.598 91.3004C374.76 91.3004 370.93 87.5071 370.93 80.6108C370.93 73.1469 374.961 69.1128 380.606 69.1128V75.5669C378.389 75.5669 376.575 77.4243 376.575 80.6108C376.575 83.4754 377.985 84.8463 379.598 84.8463C381.009 84.8463 381.735 84.0381 382.217 81.4167L383.026 76.9796C384.033 71.3314 386.451 68.9115 391.291 68.9115C396.129 68.9115 399.958 72.744 399.958 80.2079C399.958 87.6299 395.726 91.9048 390.282 91.9048V85.4507Z" fill="#19226D"/>
<path d="M371.331 58.8812H399.554V65.3355H371.331V58.8812Z" fill="#19226D"/>
<path d="M385.444 34.6187C380.405 34.6187 377.18 37.847 377.18 41.8787C377.18 45.9129 380.405 49.141 385.444 49.141C390.484 49.141 393.709 45.9129 393.709 41.8787C393.709 37.847 390.484 34.6187 385.444 34.6187ZM385.444 55.5951C376.937 55.5951 370.93 49.5047 370.93 41.8787C370.93 34.2552 376.937 28.1646 385.444 28.1646C393.95 28.1646 399.958 34.2552 399.958 41.8787C399.958 49.5047 393.95 55.5951 385.444 55.5951Z" fill="#19226D"/>
<path d="M371.333 24.8559V16.9891L388.265 8.11504V7.30915H371.333V0.852722H399.554V8.71946L382.62 17.5935V18.4018H399.554V24.8559H371.333Z" fill="#19226D"/>
</svg>
