<svg width="38" height="40" viewBox="0 0 38 40" fill="none" xmlns="http://www.w3.org/2000/svg">
<path d="M14.8821 0.166626C12.8686 0.166626 11.2363 1.79892 11.2363 3.81246C11.2363 5.826 12.8686 7.45829 14.8821 7.45829H23.2154C25.229 7.45829 26.8612 5.826 26.8612 3.81246C26.8612 1.79892 25.229 0.166626 23.2154 0.166626H14.8821Z" fill="#192552"/>
<path d="M2.09731 29.7608C0.309915 22.6112 -0.583772 19.0364 1.29296 16.6328C3.16969 14.2291 6.8545 14.2291 14.2241 14.2291H23.8712C31.241 14.2291 34.9258 14.2291 36.8025 16.6328C38.6792 19.0364 37.7856 22.6112 35.9981 29.7608C34.8612 34.3081 34.2929 36.5816 32.5975 37.9054C30.9021 39.2291 28.5585 39.2291 23.8712 39.2291H14.2241C9.53689 39.2291 7.19329 39.2291 5.49792 37.9054C3.80252 36.5816 3.23412 34.3081 2.09731 29.7608Z" fill="#192552"/>
<path opacity="0.5" d="M26.5083 5.38003C26.7348 4.90524 26.8614 4.37378 26.8614 3.81272C26.8614 3.25428 26.736 2.72516 26.5116 2.25208C27.9356 2.26243 29.0454 2.32778 30.0362 2.71499C31.22 3.17764 32.2496 3.9641 33.0073 4.98443C33.7716 6.01376 34.1306 7.33312 34.6243 9.14906L34.721 9.50399L35.7891 15.6769C34.9379 15.0895 33.84 14.7405 32.4198 14.5331L31.667 10.1831C31.076 8.01701 30.8614 7.3363 30.4983 6.8476C30.0904 6.2982 29.536 5.87472 28.8985 5.6256C28.4406 5.44662 27.8873 5.39397 26.5083 5.38003Z" fill="#1C274C"/>
<path opacity="0.5" d="M11.5865 2.25208C11.362 2.72518 11.2365 3.25428 11.2365 3.81272C11.2365 4.37378 11.3632 4.90524 11.5896 5.38003C10.2108 5.39397 9.65748 5.44662 9.19956 5.6256C8.56217 5.87472 8.00777 6.2982 7.59975 6.8476C7.23681 7.3363 7.02223 8.01701 6.43102 10.1831L5.67831 14.5329C4.25844 14.7402 3.16052 15.089 2.30908 15.6759L3.37708 9.50399L3.47373 9.14908C3.96764 7.33314 4.32648 6.01376 5.09092 4.98443C5.84867 3.9641 6.87827 3.17764 8.062 2.71499C9.05269 2.3278 10.1625 2.26243 11.5865 2.25208Z" fill="#1C274C"/>
</svg>
