<svg width="162" height="54" viewBox="0 0 162 54" fill="none" xmlns="http://www.w3.org/2000/svg">
<g clip-path="url(#clip0_8_2184)">
<path d="M113.644 10.31H143.062V0.347847H107.507C101.783 0.347847 97.1448 5.04769 97.1448 10.8466V30.9005L73.9837 1.65418C73.3294 0.825233 72.3364 0.344147 71.2879 0.344147L59.0444 0.347847V53.6226H72.95V16.2717L99.4857 49.7702C101.386 52.1201 104.271 53.6226 107.507 53.6226H143.062V43.664H113.644C112.211 43.664 111.054 42.4873 111.054 41.0366V31.9663H139.069V22.0078H111.054V12.9338C111.054 11.4832 112.211 10.31 113.644 10.31Z" fill="#19226D"/>
<path d="M38.1842 40.3039V40.6C38.1842 42.2912 36.8327 43.6641 35.1635 43.6641H17.0138C15.3445 43.6641 13.9931 42.2912 13.9931 40.6V13.3705C13.9931 11.6793 15.3445 10.3101 17.0138 10.3101H22.0726L27.7488 0.3479H12.1705C5.49713 0.3479 0.0839844 5.83227 0.0839844 12.5971V41.3771C0.0839844 48.1419 5.49713 53.6226 12.1705 53.6226H40.0033C46.6802 53.6226 52.0933 48.1419 52.0933 41.3771V40.3039" fill="#19226D"/>
<path d="M26.0869 10.3101H35.1636C36.8328 10.3101 38.1843 11.6793 38.1843 13.3705V36.7809H52.0934V12.5971C52.0934 5.83227 46.6803 0.3479 40.0033 0.3479H31.7631" fill="#00BCF1"/>
<path d="M150.016 53.6226V50.7361L158.158 48.0937V47.7644L150.016 45.1259V42.2356L161.416 46.0325V49.8294" fill="#19226D"/>
<path d="M150.016 41.5362H161.416V38.8976H150.016V41.5362Z" fill="#19226D"/>
<path d="M157.668 34.9565C158.581 34.9565 159.297 34.2127 159.297 32.8138C159.297 31.4076 158.727 30.8303 158.077 30.8303C157.508 30.8303 157.102 31.2262 156.853 32.4807L156.529 34.2978C156.156 36.359 155.162 37.3508 153.355 37.3508C151.4 37.3508 149.852 35.7965 149.852 32.9766C149.852 29.9236 151.481 28.2731 153.76 28.2731V30.9154C152.865 30.9154 152.131 31.674 152.131 32.9766C152.131 34.1497 152.701 34.7085 153.355 34.7085C153.924 34.7085 154.216 34.3792 154.414 33.3059L154.739 31.4927C155.144 29.1797 156.123 28.1917 158.077 28.1917C160.032 28.1917 161.58 29.757 161.58 32.8138C161.58 35.8484 159.871 37.5987 157.668 37.5987" fill="#19226D"/>
<path d="M150.016 26.7298H161.416V24.0875H150.016V26.7298Z" fill="#19226D"/>
<path d="M155.714 14.1624C153.679 14.1624 152.376 15.4835 152.376 17.134C152.376 18.7808 153.679 20.1019 155.714 20.1019C157.752 20.1019 159.056 18.7808 159.056 17.134C159.056 15.4835 157.752 14.1624 155.714 14.1624ZM155.714 22.7442C152.277 22.7442 149.852 20.2537 149.852 17.134C149.852 14.0143 152.277 11.5201 155.714 11.5201C159.151 11.5201 161.58 14.0143 161.58 17.134C161.58 20.2537 159.151 22.7442 155.714 22.7442Z" fill="#19226D"/>
<path d="M150.016 10.1694V6.94987L156.853 3.31953V2.99017H150.016V0.3479H161.416V3.56747L154.574 7.19778V7.52718H161.416V10.1694" fill="#19226D"/>
</g>
<defs>
<clipPath id="clip0_8_2184">
<rect width="162" height="54" fill="white"/>
</clipPath>
</defs>
</svg>
