<svg width="122" height="40" viewBox="0 0 122 40" fill="none" xmlns="http://www.w3.org/2000/svg">
<g clip-path="url(#clip0_1_75)">
<path d="M85.5826 7.63705H107.737V0.258788H80.9608C76.6523 0.258788 73.1592 3.74019 73.1592 8.03421V22.8889L55.7158 1.2258C55.2225 0.612471 54.4757 0.25528 53.6867 0.255982L44.4658 0.258788V39.7205H54.9384V12.0518L74.921 36.8665C76.3523 38.6083 78.5261 39.7205 80.9608 39.7205H107.737V32.3423H85.5826C84.5052 32.3423 83.6321 31.4721 83.6321 30.3984V23.6792H104.73V16.3009H83.6321V9.58089C83.6321 8.50721 84.5052 7.63705 85.5826 7.63705Z" fill="#19226D"/>
<path d="M28.7564 29.8554V30.0743C28.7564 31.327 27.7375 32.3424 26.4805 32.3424H12.8115C11.5546 32.3424 10.5363 31.327 10.5363 30.0743V9.90454C10.5363 8.65259 11.5546 7.63717 12.8115 7.63717H16.6219L20.897 0.258911H9.166C4.13881 0.258911 0.0629883 4.31996 0.0629883 9.3298V30.6498C0.0629883 35.6596 4.13881 39.7206 9.166 39.7206H30.1268C35.1539 39.7206 39.229 35.6596 39.229 30.6498V29.8554H28.7564Z" fill="#19226D"/>
<path d="M19.6455 7.63689H26.481C27.7373 7.63689 28.7562 8.65236 28.7562 9.905V27.246H39.2296V9.32952C39.2296 4.31972 35.1538 0.258667 30.1266 0.258667H23.9199L19.6455 7.63689Z" fill="#00C2F3"/>
<path d="M112.974 39.7207V37.5818L119.107 35.626V35.3811L112.974 33.4253V31.2864L121.56 34.0976V36.9095L112.974 39.7207Z" fill="#19226D"/>
<path d="M112.974 28.8126H121.56V30.7684H112.974V28.8126Z" fill="#19226D"/>
<path d="M118.739 25.8942C119.426 25.8942 119.966 25.3441 119.966 24.3055C119.966 23.2662 119.536 22.8381 119.046 22.8381C118.617 22.8381 118.31 23.1314 118.126 24.0605L117.88 25.4051C117.598 26.9335 116.851 27.6668 115.489 27.6668C114.017 27.6668 112.852 26.5174 112.852 24.4276C112.852 22.1658 114.078 20.9433 115.795 20.9433V22.8991C115.121 22.8991 114.569 23.462 114.569 24.4276C114.569 25.2956 114.998 25.7111 115.489 25.7111C115.918 25.7111 116.139 25.4662 116.286 24.6718L116.532 23.3272C116.838 21.6156 117.574 20.8823 119.046 20.8823C120.518 20.8823 121.683 22.0437 121.683 24.3055C121.683 26.5546 120.395 27.85 118.739 27.85V25.8942Z" fill="#19226D"/>
<path d="M112.974 17.8428H121.56V19.7986H112.974V17.8428Z" fill="#19226D"/>
<path d="M117.267 10.4906C115.734 10.4906 114.753 11.4688 114.753 12.6906C114.753 13.9131 115.734 14.8913 117.267 14.8913C118.801 14.8913 119.782 13.9131 119.782 12.6906C119.782 11.4688 118.801 10.4906 117.267 10.4906ZM117.267 16.8471C114.679 16.8471 112.852 15.0015 112.852 12.6906C112.852 10.3804 114.679 8.53479 117.267 8.53479C119.855 8.53479 121.683 10.3804 121.683 12.6906C121.683 15.0015 119.855 16.8471 117.267 16.8471Z" fill="#19226D"/>
<path d="M112.974 7.53212V5.14825L118.126 2.45913V2.21492H112.974V0.258423H121.56V2.64228L116.408 5.33138V5.57633H121.56V7.53212H112.974Z" fill="#19226D"/>
</g>
<defs>
<clipPath id="clip0_1_75">
<rect width="122" height="40" fill="white"/>
</clipPath>
</defs>
</svg>
