<svg width="138" height="138" viewBox="0 0 138 138" fill="none" xmlns="http://www.w3.org/2000/svg">
<path d="M69 8.625C85.0124 8.625 100.369 14.9859 111.692 26.3084C123.014 37.6309 129.375 52.9876 129.375 69C129.375 85.0124 123.014 100.369 111.692 111.692C100.369 123.014 85.0124 129.375 69 129.375C52.9876 129.375 37.6309 123.014 26.3084 111.692C14.9859 100.369 8.625 85.0124 8.625 69C8.625 52.9876 14.9859 37.6309 26.3084 26.3084C37.6309 14.9859 52.9876 8.625 69 8.625ZM61.479 80.9111L48.0671 67.4906C47.5863 67.0098 47.0155 66.6284 46.3873 66.3682C45.7591 66.108 45.0858 65.9741 44.4058 65.9741C43.7258 65.9741 43.0525 66.108 42.4243 66.3682C41.7961 66.6284 41.2253 67.0098 40.7445 67.4906C39.7735 68.4617 39.2279 69.7787 39.2279 71.1519C39.2279 72.5252 39.7735 73.8422 40.7445 74.8132L57.822 91.8908C58.3015 92.374 58.8718 92.7575 59.5002 93.0192C60.1286 93.281 60.8026 93.4157 61.4833 93.4157C62.164 93.4157 62.838 93.281 63.4664 93.0192C64.0948 92.7575 64.6652 92.374 65.1446 91.8908L100.507 56.5196C100.994 56.0408 101.382 55.4703 101.648 54.8409C101.913 54.2115 102.052 53.5358 102.055 52.8527C102.058 52.1696 101.926 51.4926 101.666 50.8608C101.406 50.2289 101.024 49.6548 100.541 49.1715C100.059 48.6882 99.4849 48.3052 98.8534 48.0447C98.2219 47.7842 97.545 47.6513 96.8619 47.6536C96.1788 47.656 95.5029 47.7936 94.8732 48.0585C94.2435 48.3234 93.6725 48.7103 93.1931 49.197L61.479 80.9111Z" fill="#192552"/>
</svg>
